<svg viewBox="0 0 128 128" fill="none" xmlns="http://www.w3.org/2000/svg">
  <path
    d="M109.033 7.343c-19.667.178-47.373 3.934-62.522 28.673-19.168 31.302-16.687 33.492-15.094 39.883 1.166 4.683 4.392 8.642 8.192 11.845 3.14 3.852 7.045 7.143 11.708 8.387 6.364 1.698 8.513 4.215 40.127-14.433 30.751-18.14 30.037-55.823 29.668-74.12-3.43-.127-7.54-.276-12.079-.235zM80.686 25.794a20.306 20.306 0 0115.807 5.896 20.306 20.306 0 010 28.717 20.306 20.306 0 01-28.717 0 20.306 20.306 0 010-28.717 20.306 20.306 0 0112.91-5.896zm-51.502 20.41c-19.92.227-27.039 21.974-19.177 21.31 4.283-.361 9.611 1.33 15.087 4.388-.205-2.269-.092-4.993.86-8.17 1.259-4.196 3.675-9.457 8.004-17.173a29.778 29.778 0 00-4.774-.354zm-1.629 35.03c-7.146 10.195-5.071 11.405-1.419 20.34 8.94 3.655 10.144 5.734 20.35-1.422-4.402-1.98-7.928-5.183-10.762-8.585-3.213-2.767-6.242-6.158-8.169-10.333zm53.401 12.698c-7.929 4.29-13.302 6.659-17.565 7.86-2.991.844-5.563.948-7.74.76 2.986 5.403 4.631 10.652 4.274 14.88-.71 8.407 24.203-.314 21.031-23.5z" />
  <style>
    path {
      fill: #000;
    }

    @media (prefers-color-scheme: dark) {
      path {
        fill: #FFF;
      }
    }
  </style>
</svg>