<svg xmlns="http://www.w3.org/2000/svg" width="33" height="33" viewBox="0 0 33 33" fill="none"><path d="M18.0297 7.07323C21.1857 4.55079 26.6588 4.30301 29.8173 6.47855C32.7786 8.51782 33.7649 12.014 32.3891 15.5945C30.8435 19.6185 27.8798 22.4755 24.4441 24.8815C21.4604 26.9703 18.1595 28.3504 14.4941 28.8683C8.76884 29.6786 3.06103 26.6903 0.966164 21.5438C-2.45703 13.1365 3.83006 7.1773 10.212 6.48351C15.4954 5.90865 21.0683 9.15214 23.4404 13.8898C23.72 14.4473 23.6027 14.8091 23.2581 15.2204C22.0546 16.655 20.6963 17.9212 19.1408 18.9768C18.5141 19.4005 18.0472 19.4401 17.4529 18.7736C15.9398 17.0738 14.0697 15.9761 11.6802 16.0876C10.3094 16.152 9.1159 16.66 8.53164 17.951C7.98233 19.1626 8.45174 20.2801 9.21827 21.2886C10.7713 23.3303 12.634 24.0464 15.1508 23.1445C20.147 21.353 23.7849 17.9856 25.9872 13.1786C26.7087 11.6052 26.2493 11.0229 24.494 11.1443C23.6726 11.2013 23.0833 10.9535 22.4691 10.4604C21.0184 9.30081 19.5228 8.20561 18.0297 7.07323Z" fill="#5FA28D"></path></svg>